<?xml version="1.0" encoding="UTF-8"?>
<svg width="18px" height="18px" viewBox="0 0 18 18" version="1.1" xmlns="http://www.w3.org/2000/svg" xmlns:xlink="http://www.w3.org/1999/xlink">
    <g stroke="none" stroke-width="1" fill="none" fill-rule="evenodd">
        <path d="M17.64,9.20454545 C17.64,4.71545455 13.9245455,1 9.43545455,1 C4.94636364,1 1.23090909,4.71545455 1.23090909,9.20454545 C1.23090909,13.6936364 4.94636364,17.4090909 9.43545455,17.4090909 C9.43545455,17.4090909 9.43545455,17.4090909 9.43545455,17.4090909 C11.1,17.4090909 12.6545455,16.9545455 13.9636364,16.1454545 L13.9636364,12.5 L11.5,12.5 L11.5,10.5 L13.9636364,10.5 L13.9636364,8.5 C13.9636364,6.5 15.5,5 17.5,5 L17.5,7 L16.5,7 C15.5,7 15,7.5 15,8.5 L15,10.5 L17.5,10.5 L17,12.5 L15,12.5 L15,16.1454545 C16.3090909,16.9545455 17.8636364,17.4090909 19.5281818,17.4090909 C19.5281818,17.4090909 19.5281818,17.4090909 19.5281818,17.4090909 C24.0172727,17.4090909 27.7327273,13.6936364 27.7327273,9.20454545 C27.7327273,4.71545455 24.0172727,1 19.5281818,1 C15.0390909,1 11.3236364,4.71545455 11.3236364,9.20454545 C11.3236364,9.20454545 11.3236364,9.20454545 11.3236364,9.20454545 L17.64,9.20454545 Z" fill="#1877F2"></path>
    </g>
</svg> 